<svg xmlns="http://www.w3.org/2000/svg" width="498" height="498">
 <!--! Font Awesome Pro 6.2.1 by @fontawesome - https://fontawesome.com License - https://fontawesome.com/license (Commercial License) Copyright 2022 Fonticons, Inc. -->
 <defs xmlns="http://www.w3.org/2000/svg">
  <filter id="svg_1_blur" x="-50%" y="-50%" width="200%" height="200%">
   <feGaussianBlur in="SourceGraphic" stdDeviation="0.3"/>
  </filter>
    <style xmlns="http://www.w3.org/2000/svg">
    .prefix__cls-1{fill:#3e3a39}@media (prefers-color-scheme:dark){.prefix__cls-1{fill:#efefef}}
    </style>
    <!--TOOOOO MAKE IT WORK in the DARKMOOOOOOOOOOOOOODE!!!!!!!!!!!!! -->
 </defs>
 <g xmlns="http://www.w3.org/2000/svg">

<title>otto in wheelchair</title>
  <!--! Font Awesome Pro 6.2.1 by @fontawesome - https://fontawesome.com License - https://fontawesome.com/license (Commercial License) Copyright 2022 Fonticons, Inc. -->
  <path class="prefix__cls-1" opacity="0.88" d="M474.93 265 q-8 -9 -19 -9 l-136 0 q0 0 0 0 q-1 0 -1 0 q-13 -17 -30 -31 l72 -72 q8 -9 7 -21 q-2 -11 -13 -17 l-120 -64 q-13 -7 -26 2 l-72 56 q-16 15 -4 34 q15 16 34 4 l59 -46 l78 41 l-59 60 q-26 -10 -53 -10 q-68 2 -113 47 q-45 45 -47 113 q2 68 47 113 q45 45 113 47 q68 -2 113 -47 q45 -45 47 -113 q0 -25 -8 -48 l83 0 l-27 131 q-2 22 19 29 q3 0 5 0 q18 -1 24 -19 l32 -160 q1 -11 -5 -20 l0 0 ZM191.93 464 q-48 -1 -79 -33 l0 0 q-32 -31 -33 -79 q1 -48 33 -79 q31 -32 79 -33 q48 1 79 33 q32 31 33 79 q-1 48 -33 79 q-31 32 -79 33 l0 0 ZM399.93 96 q20 -1 34 -14 l0 0 q13 -14 14 -34 q-1 -20 -14 -34 q-14 -13 -34 -14 q-20 1 -34 14 q-13 14 -14 34 q1 20 14 34 q14 13 34 14 l0 0 Z"/>
</g>
</svg>
