<svg width="498" height="498" xmlns="http://www.w3.org/2000/svg">
 <!--! Font Awesome Pro 6.2.1 by @fontawesome - https://fontawesome.com License - https://fontawesome.com/license (Commercial License) Copyright 2022 Fonticons, Inc. -->
 <defs>
  <filter height="200%" width="200%" y="-50%" x="-50%" id="svg_1_blur">
   <feGaussianBlur stdDeviation="0.4" in="SourceGraphic"/>
  </filter>
 </defs>
 <g>
  <title>Layer 1</title>
  <path filter="url(#svg_1_blur)" transform="rotate(2 244.068 247.082)" stroke="null" opacity="0.88" id="svg_1" d="m443.96671,246.89633l-12.9,151.82411c-3.3,39.28316 -63.9,33.87811 -60.6,-4.72942l10,-118.23556l-41.1,2.21993c10.1,19.9794 15.8,42.37176 15.8,66.11539c0,39.76575 -16.1,75.96031 -42.3,102.79254l-39.3,-37.9319c57.9,-61.48249 13.1,-161.37947 -74,-161.37947c-25.9,0 -49.5,9.55536 -67.2,25.09489l-39.3,-37.9319c22,-19.9794 50.1,-33.87811 81.4,-38.80057l75.3,-82.71663l-42.6,-23.93667l-51.6,44.39866c-30,25.86704 -70.6,-17.85598 -40.5,-43.81954l68,-58.58692c9.8,-8.49366 24.1,-9.84492 35.5,-3.47468c0,0 139.3,78.08373 139.5,78.27676c16.2,9.7484 20.7,34.74678 6.1,50.7689l-58.4,64.18502l106.1,-5.69461c18.5,-1.06171 33.6,13.89871 32.1,31.56165zm-64.9,-148.63898c28.1,0 50.9,-22.00629 50.9,-49.12808c0,-27.12179 -22.8,-49.12808 -50.9,-49.12808c-28.1,0 -50.9,22.00629 -50.9,49.12808c0,27.12179 22.8,49.12808 50.9,49.12808zm-179.4,342.35226c-80.6,0 -127.4,-87.44605 -82.7,-150.66588l-39.7,-38.31797c-20.8,25.38445 -33.2,57.52522 -33.2,92.36851c0,126.1501 150.7,194.38891 251.4,118.23556l-39.7,-38.31797c-16,10.52055 -35.3,16.69776 -56.1,16.69776z"/>
 </g>
</svg>